<?xml version="1.0" standalone="no"?>
<!DOCTYPE svg PUBLIC "-//W3C//DTD SVG 20010904//EN"
 "http://www.w3.org/TR/2001/REC-SVG-20010904/DTD/svg10.dtd">
<svg version="1.0" xmlns="http://www.w3.org/2000/svg"
 width="2222.000000pt" height="2222.000000pt" viewBox="0 0 2222.000000 2222.000000"
 preserveAspectRatio="xMidYMid meet">

<g transform="translate(0.000000,2222.000000) scale(0.100000,-0.100000)"
fill="#000000" stroke="none">
<path d="M0 11110 l0 -11110 3843 0 c3761 0 3841 1 3812 19 -16 10 -187 117
-380 236 -192 119 -366 227 -385 240 -19 12 -174 109 -345 215 -170 106 -326
202 -345 215 -19 13 -118 74 -220 137 -102 63 -378 236 -615 383 -236 147
-585 365 -775 483 -190 118 -365 228 -390 243 -25 16 -182 114 -350 218 -168
104 -336 209 -375 233 -88 56 -698 437 -945 590 -102 63 -486 303 -855 533
-369 230 -753 470 -855 533 -102 63 -218 135 -257 160 l-73 45 0 6551 1 6551
186 115 c103 63 205 127 227 141 23 15 181 113 351 219 171 105 326 202 345
215 19 13 136 86 260 162 462 287 1006 626 1040 648 19 12 175 109 345 215
171 106 326 202 345 215 19 12 136 85 260 162 124 77 430 268 680 423 250 156
655 409 900 561 245 152 470 293 500 312 30 19 213 132 405 252 193 120 376
234 407 254 32 20 83 52 115 72 32 20 177 110 323 201 146 91 369 229 495 308
127 78 234 146 239 151 6 5 -1631 9 -3952 9 l-3962 0 0 -11110z"/>
<path d="M7792 22112 c-403 -250 -831 -517 -877 -547 -27 -18 -115 -73 -195
-122 -258 -160 -684 -425 -720 -448 -19 -12 -190 -119 -380 -237 -190 -118
-482 -300 -650 -405 -168 -104 -444 -277 -615 -383 -170 -106 -332 -207 -360
-225 -27 -17 -183 -114 -345 -215 -162 -100 -311 -193 -330 -205 -19 -13 -210
-132 -425 -265 -214 -134 -543 -338 -730 -455 -187 -116 -527 -328 -755 -470
-228 -141 -431 -268 -450 -280 -19 -13 -127 -80 -240 -150 -113 -70 -207 -129
-209 -130 -2 -2 -4 -2946 -4 -6542 l-2 -6537 140 -88 c77 -48 154 -96 170
-107 17 -10 185 -115 375 -233 558 -347 1410 -878 1472 -917 93 -58 408 -254
658 -409 58 -36 128 -80 155 -97 28 -18 201 -126 385 -240 184 -115 358 -223
385 -240 28 -18 237 -148 465 -290 228 -141 431 -268 450 -280 19 -13 175
-110 345 -215 171 -106 326 -202 345 -214 91 -58 134 -85 410 -256 162 -101
318 -198 345 -216 28 -17 133 -83 235 -146 102 -63 341 -212 532 -331 l348
-217 3277 0 3278 1 52 32 c29 18 81 50 115 71 35 22 236 147 448 279 212 132
401 249 420 262 19 12 208 130 420 262 212 132 644 401 960 598 316 197 694
432 840 523 146 90 281 175 300 187 19 12 118 74 220 137 102 64 397 247 655
408 259 161 571 356 695 433 751 467 919 572 950 592 19 13 157 98 305 190
149 92 296 184 327 204 88 56 160 100 323 201 83 51 158 99 168 108 16 14 17
339 17 6549 l0 6534 -62 38 c-35 22 -88 55 -118 74 -30 19 -194 121 -365 227
-170 105 -326 202 -345 215 -19 13 -118 74 -220 137 -102 63 -360 224 -575
358 -214 133 -491 306 -615 383 -124 77 -251 156 -282 176 -104 65 -362 226
-1213 755 -280 175 -526 328 -545 341 -33 21 -224 140 -680 423 -102 63 -201
124 -220 137 -19 13 -228 143 -465 290 -236 147 -446 278 -465 290 -19 12
-165 104 -325 203 -159 99 -442 275 -628 391 l-339 211 -3031 0 -3032 -1 -173
-107z m5036 -1499 c950 -592 2310 -1439 3022 -1883 712 -444 1804 -1124 2425
-1512 622 -387 1174 -731 1227 -764 l97 -59 1 -5301 0 -5300 -257 -161 c-142
-88 -503 -314 -803 -500 -3052 -1904 -7434 -4634 -7440 -4636 -7 -2 -496 302
-6500 4045 -1081 673 -1975 1230 -1988 1237 l-22 12 0 5303 0 5303 23 10 c12
6 621 384 1352 840 732 456 1992 1242 2800 1746 809 504 2111 1316 2895 1806
784 489 1429 890 1433 890 4 1 785 -483 1735 -1076z"/>
<path d="M10020 21004 c-586 -366 -1535 -958 -2110 -1316 -575 -359 -1522
-949 -2105 -1312 -583 -364 -1540 -960 -2127 -1326 l-1068 -665 3 -5294 2
-5293 1050 -655 c3450 -2150 5915 -3687 6670 -4158 413 -257 755 -468 760
-468 6 0 717 440 1580 978 1445 900 4064 2533 5605 3493 349 218 784 489 965
602 l330 206 3 5295 2 5295 -482 301 c-266 165 -1579 984 -2918 1818 -1339
835 -3027 1887 -3750 2338 -723 451 -1322 821 -1330 823 -8 2 -494 -296 -1080
-662z m1750 -2077 c278 -172 681 -423 895 -557 215 -134 525 -327 690 -430
165 -103 512 -319 770 -480 259 -161 569 -355 690 -430 121 -75 537 -335 925
-577 388 -241 996 -621 1353 -843 l647 -404 0 -4101 0 -4101 -32 -19 c-40 -23
-591 -366 -2033 -1265 -253 -158 -599 -374 -770 -480 -170 -106 -463 -289
-650 -405 -888 -554 -1645 -1026 -2115 -1318 -283 -177 -618 -385 -743 -464
-127 -79 -234 -140 -240 -136 -29 17 -434 269 -1047 651 -366 228 -847 528
-1070 667 -1418 884 -1769 1103 -2460 1533 -234 146 -542 338 -685 427 -143
89 -489 305 -769 479 -279 175 -514 320 -522 323 -12 4 -14 604 -14 4107 l0
4101 433 270 c237 148 563 351 722 450 160 100 457 285 660 412 204 126 600
373 880 548 281 175 665 415 855 533 190 118 516 322 725 452 209 130 517 322
685 427 168 104 517 322 775 483 259 161 547 340 640 398 94 58 176 111 184
118 11 10 23 6 65 -21 28 -18 278 -175 556 -348z"/>
<path d="M10879 19111 c-156 -97 -606 -378 -999 -623 -393 -245 -1014 -632
-1380 -860 -366 -228 -784 -489 -930 -580 -146 -91 -458 -286 -695 -433 -603
-376 -865 -539 -1540 -960 -324 -202 -623 -388 -662 -413 l-73 -45 0 -4091 1
-4091 107 -66 c59 -37 334 -208 612 -381 278 -173 624 -389 770 -480 256 -159
736 -458 1460 -910 190 -118 521 -324 735 -458 215 -134 545 -340 735 -458
190 -118 626 -391 970 -605 344 -214 748 -466 898 -560 237 -148 276 -169 295
-160 12 6 240 147 507 313 267 167 602 376 745 465 456 284 1324 825 2155
1343 530 330 1126 702 1415 882 121 75 450 280 730 455 281 175 619 386 752
469 l243 151 0 4091 0 4092 -207 130 c-115 71 -417 260 -673 419 -443 276
-677 422 -1545 963 -209 130 -690 430 -1070 667 -759 473 -1161 723 -2090
1303 -585 365 -947 589 -971 603 -5 3 -138 -74 -295 -172z m1011 -2613 c366
-228 1012 -631 1435 -895 424 -264 1175 -733 1669 -1042 495 -308 896 -561
891 -561 -5 0 -48 24 -95 54 -79 50 -1171 731 -1880 1173 -168 104 -678 423
-1135 708 -1332 831 -1598 997 -1612 1002 -7 3 -282 -163 -610 -368 -329 -205
-890 -555 -1248 -778 -357 -224 -1148 -717 -1757 -1096 l-1107 -690 2 -2949 2
-2949 355 -222 c362 -226 1315 -820 2650 -1653 410 -256 960 -599 1223 -763
263 -165 480 -299 482 -299 4 0 217 132 1880 1170 391 243 913 569 1160 723
248 155 726 453 1064 664 338 211 615 382 617 380 2 -2 -114 -77 -259 -167
-144 -90 -687 -429 -1207 -753 -520 -325 -1116 -697 -1325 -827 -209 -130
-715 -446 -1125 -702 -410 -255 -759 -472 -776 -482 l-30 -18 -120 75 c-65 41
-456 285 -869 542 -412 257 -1422 887 -2242 1399 l-1493 931 0 2951 0 2952
513 320 c541 337 2131 1330 2797 1745 217 135 625 389 905 565 l510 318 35
-21 c19 -12 334 -209 700 -437z m-695 -1763 l20 -16 -20 10 c-11 5 -29 17 -40
26 l-20 16 20 -10 c11 -5 29 -17 40 -26z m80 -50 l20 -16 -20 10 c-11 5 -29
17 -40 26 l-20 16 20 -10 c11 -5 29 -17 40 -26z m80 -50 l20 -16 -20 10 c-11
5 -29 17 -40 26 l-20 16 20 -10 c11 -5 29 -17 40 -26z m148 -89 c42 -27 77
-50 77 -53 0 -3 -10 1 -22 9 -13 8 -58 36 -100 62 -43 27 -78 50 -78 53 0 3
10 -1 23 -9 12 -8 57 -36 100 -62z m142 -91 l20 -16 -20 10 c-11 5 -29 17 -40
26 l-20 16 20 -10 c11 -5 29 -17 40 -26z m65 -41 c0 -2 -9 0 -20 6 -11 6 -20
13 -20 16 0 2 9 0 20 -6 11 -6 20 -13 20 -16z m-1170 11 c0 -2 -10 -9 -22 -15
-22 -11 -22 -10 -4 4 21 17 26 19 26 11z m1265 -70 l20 -16 -20 10 c-11 5 -29
17 -40 26 l-20 16 20 -10 c11 -5 29 -17 40 -26z m-1345 20 c0 -2 -10 -9 -22
-15 -22 -11 -22 -10 -4 4 21 17 26 19 26 11z m-65 -41 c-26 -20 -55 -36 -55
-30 0 5 63 46 70 46 3 -1 -4 -8 -15 -16z m1475 -20 c0 -2 -9 0 -20 6 -11 6
-20 13 -20 16 0 2 9 0 20 -6 11 -6 20 -13 20 -16z m-1555 -30 c-26 -20 -55
-36 -55 -30 0 5 63 46 70 46 3 -1 -4 -8 -15 -16z m1635 -20 c0 -2 -9 0 -20 6
-11 6 -20 13 -20 16 0 2 9 0 20 -6 11 -6 20 -13 20 -16z m-1715 -30 c-26 -20
-55 -36 -55 -30 0 5 63 46 70 46 3 -1 -4 -8 -15 -16z m1795 -20 c0 -2 -9 0
-20 6 -11 6 -20 13 -20 16 0 2 9 0 20 -6 11 -6 20 -13 20 -16z m-1875 -30
c-26 -20 -55 -36 -55 -30 0 5 63 46 70 46 3 -1 -4 -8 -15 -16z m1955 -20 c0
-2 -9 0 -20 6 -11 6 -20 13 -20 16 0 2 9 0 20 -6 11 -6 20 -13 20 -16z m-2035
-30 c-26 -20 -55 -36 -55 -30 0 5 63 46 70 46 3 -1 -4 -8 -15 -16z m2115 -20
c0 -2 -9 0 -20 6 -11 6 -20 13 -20 16 0 2 9 0 20 -6 11 -6 20 -13 20 -16z
m-2195 -30 c-26 -20 -55 -36 -55 -30 0 5 63 46 70 46 3 -1 -4 -8 -15 -16z
m2275 -20 c0 -2 -9 0 -20 6 -11 6 -20 13 -20 16 0 2 9 0 20 -6 11 -6 20 -13
20 -16z m-2355 -30 c-26 -20 -55 -36 -55 -30 0 5 63 46 70 46 3 -1 -4 -8 -15
-16z m2435 -20 c0 -2 -9 0 -20 6 -11 6 -20 13 -20 16 0 2 9 0 20 -6 11 -6 20
-13 20 -16z m-2500 -19 c0 -2 -10 -9 -22 -15 -22 -11 -22 -10 -4 4 21 17 26
19 26 11z m-65 -41 c-26 -20 -55 -36 -55 -30 0 5 63 46 70 46 3 -1 -4 -8 -15
-16z m-65 -39 c0 -2 -10 -9 -22 -15 -22 -11 -22 -10 -4 4 21 17 26 19 26 11z
m-80 -50 c0 -2 -10 -9 -22 -15 -22 -11 -22 -10 -4 4 21 17 26 19 26 11z m3000
-31 c0 -2 -9 0 -20 6 -11 6 -20 13 -20 16 0 2 9 0 20 -6 11 -6 20 -13 20 -16z
m56 -35 c3 -6 -5 -3 -20 6 -14 10 -26 19 -26 22 0 7 39 -17 46 -28z m-3136 16
c0 -2 -10 -9 -22 -15 -22 -11 -22 -10 -4 4 21 17 26 19 26 11z m3216 -66 c3
-6 -5 -3 -20 6 -14 10 -26 19 -26 22 0 7 39 -17 46 -28z m-3296 16 c0 -2 -10
-9 -22 -15 -22 -11 -22 -10 -4 4 21 17 26 19 26 11z m3385 -70 l20 -16 -20 10
c-11 5 -29 17 -40 26 l-20 16 20 -10 c11 -5 29 -17 40 -26z m-3465 20 c0 -2
-10 -9 -22 -15 -22 -11 -22 -10 -4 4 21 17 26 19 26 11z m3545 -70 l20 -16
-20 10 c-11 5 -29 17 -40 26 l-20 16 20 -10 c11 -5 29 -17 40 -26z m-3625 20
c0 -2 -10 -9 -22 -15 -22 -11 -22 -10 -4 4 21 17 26 19 26 11z m3705 -70 l20
-16 -20 10 c-11 5 -29 17 -40 26 l-20 16 20 -10 c11 -5 29 -17 40 -26z m-3785
20 c0 -2 -10 -9 -22 -15 -22 -11 -22 -10 -4 4 21 17 26 19 26 11z m3850 -61
c0 -2 -9 0 -20 6 -11 6 -20 13 -20 16 0 2 9 0 20 -6 11 -6 20 -13 20 -16z
m-3930 11 c0 -2 -10 -9 -22 -15 -22 -11 -22 -10 -4 4 21 17 26 19 26 11z m-80
-50 c0 -2 -10 -9 -22 -15 -22 -11 -22 -10 -4 4 21 17 26 19 26 11z m-65 -41
c-26 -20 -55 -36 -55 -30 0 5 63 46 70 46 3 -1 -4 -8 -15 -16z m-65 -39 c0 -2
-10 -9 -22 -15 -22 -11 -22 -10 -4 4 21 17 26 19 26 11z m4380 -31 c0 -2 -9 0
-20 6 -11 6 -20 13 -20 16 0 2 9 0 20 -6 11 -6 20 -13 20 -16z m-4430 2 c0 -2
-12 -11 -27 -20 l-28 -17 24 20 c23 21 31 25 31 17z m-95 -62 c-26 -20 -55
-36 -55 -30 0 5 63 46 70 46 3 -1 -4 -8 -15 -16z m-80 -50 c-26 -20 -55 -36
-55 -30 0 5 63 46 70 46 3 -1 -4 -8 -15 -16z m-80 -50 c-26 -20 -55 -36 -55
-30 0 5 63 46 70 46 3 -1 -4 -8 -15 -16z m-80 -50 c-26 -20 -55 -36 -55 -30 0
5 63 46 70 46 3 -1 -4 -8 -15 -16z m5135 -20 c0 -2 -9 0 -20 6 -11 6 -20 13
-20 16 0 2 9 0 20 -6 11 -6 20 -13 20 -16z m-5215 -30 c-26 -20 -55 -36 -55
-30 0 5 63 46 70 46 3 -1 -4 -8 -15 -16z m5295 -20 c0 -2 -9 0 -20 6 -11 6
-20 13 -20 16 0 2 9 0 20 -6 11 -6 20 -13 20 -16z m-5375 -30 c-26 -20 -55
-36 -55 -30 0 5 63 46 70 46 3 -1 -4 -8 -15 -16z m-80 -50 c-26 -20 -55 -36
-55 -30 0 5 63 46 70 46 3 -1 -4 -8 -15 -16z m5615 -20 c0 -2 -9 0 -20 6 -11
6 -20 13 -20 16 0 2 9 0 20 -6 11 -6 20 -13 20 -16z m-5680 -19 c0 -2 -10 -9
-22 -15 -22 -11 -22 -10 -4 4 21 17 26 19 26 11z m5760 -31 c0 -2 -9 0 -20 6
-11 6 -20 13 -20 16 0 2 9 0 20 -6 11 -6 20 -13 20 -16z m80 -50 c0 -2 -9 0
-20 6 -11 6 -20 13 -20 16 0 2 9 0 20 -6 11 -6 20 -13 20 -16z m38 -1906 c-3
-1880 -3 -1891 -23 -1902 -18 -10 -18 -10 -3 3 17 13 18 114 18 1895 0 1492
-3 1885 -12 1895 -11 10 -10 11 5 6 16 -7 17 -104 15 -1897z m-6008 -1909 c17
-13 18 -17 5 -10 -33 17 -51 31 -40 31 6 0 21 -10 35 -21z m85 -54 l20 -16
-20 10 c-11 5 -29 17 -40 26 l-20 16 20 -10 c11 -5 29 -17 40 -26z m5835 20
c0 -2 -10 -9 -22 -15 -22 -11 -22 -10 -4 4 21 17 26 19 26 11z m-5755 -70 l20
-16 -20 10 c-11 5 -29 17 -40 26 l-20 16 20 -10 c11 -5 29 -17 40 -26z m5675
20 c0 -2 -10 -9 -22 -15 -22 -11 -22 -10 -4 4 21 17 26 19 26 11z m-5595 -70
l20 -16 -20 10 c-11 5 -29 17 -40 26 l-20 16 20 -10 c11 -5 29 -17 40 -26z
m5515 20 c0 -2 -10 -9 -22 -15 -22 -11 -22 -10 -4 4 21 17 26 19 26 11z
m-5450 -61 c0 -2 -9 0 -20 6 -11 6 -20 13 -20 16 0 2 9 0 20 -6 11 -6 20 -13
20 -16z m5370 11 c0 -2 -10 -9 -22 -15 -22 -11 -22 -10 -4 4 21 17 26 19 26
11z m-80 -50 c0 -2 -10 -9 -22 -15 -22 -11 -22 -10 -4 4 21 17 26 19 26 11z
m-65 -41 c-26 -20 -55 -36 -55 -30 0 5 63 46 70 46 3 -1 -4 -8 -15 -16z m-84
-52 c-38 -27 -107 -66 -96 -55 12 13 108 73 115 72 3 0 -6 -8 -19 -17z m-4901
-18 c0 -2 -9 0 -20 6 -11 6 -20 13 -20 16 0 2 9 0 20 -6 11 -6 20 -13 20 -16z
m4760 -69 c0 -2 -10 -9 -22 -15 -22 -11 -22 -10 -4 4 21 17 26 19 26 11z m-65
-41 c-26 -20 -55 -36 -55 -30 0 5 63 46 70 46 3 -1 -4 -8 -15 -16z m-80 -50
c-26 -20 -55 -36 -55 -30 0 5 63 46 70 46 3 -1 -4 -8 -15 -16z m-80 -50 c-26
-20 -55 -36 -55 -30 0 5 63 46 70 46 3 -1 -4 -8 -15 -16z m-4165 -20 c0 -2 -9
0 -20 6 -11 6 -20 13 -20 16 0 2 9 0 20 -6 11 -6 20 -13 20 -16z m4100 -19 c0
-2 -10 -9 -22 -15 -22 -11 -22 -10 -4 4 21 17 26 19 26 11z m-4020 -31 c0 -2
-9 0 -20 6 -11 6 -20 13 -20 16 0 2 9 0 20 -6 11 -6 20 -13 20 -16z m3925 -30
c-26 -20 -55 -36 -55 -30 0 5 63 46 70 46 3 -1 -4 -8 -15 -16z m-3845 -20 c0
-2 -9 0 -20 6 -11 6 -20 13 -20 16 0 2 9 0 20 -6 11 -6 20 -13 20 -16z m3780
-19 c0 -2 -10 -9 -22 -15 -22 -11 -22 -10 -4 4 21 17 26 19 26 11z m-3700 -31
c0 -2 -9 0 -20 6 -11 6 -20 13 -20 16 0 2 9 0 20 -6 11 -6 20 -13 20 -16z
m3620 -19 c0 -2 -10 -9 -22 -15 -22 -11 -22 -10 -4 4 21 17 26 19 26 11z
m-3540 -31 c0 -2 -9 0 -20 6 -11 6 -20 13 -20 16 0 2 9 0 20 -6 11 -6 20 -13
20 -16z m65 -39 l20 -16 -20 10 c-11 5 -29 17 -40 26 l-20 16 20 -10 c11 -5
29 -17 40 -26z m3395 20 c0 -2 -10 -9 -22 -15 -22 -11 -22 -10 -4 4 21 17 26
19 26 11z m-3315 -70 l20 -16 -20 10 c-11 5 -29 17 -40 26 l-20 16 20 -10 c11
-5 29 -17 40 -26z m80 -50 l20 -16 -20 10 c-11 5 -29 17 -40 26 l-20 16 20
-10 c11 -5 29 -17 40 -26z m80 -50 l20 -16 -20 10 c-11 5 -29 17 -40 26 l-20
16 20 -10 c11 -5 29 -17 40 -26z m148 -89 c42 -27 77 -50 77 -53 0 -3 -10 1
-22 9 -13 8 -58 36 -100 62 -43 27 -78 50 -78 53 0 3 10 -1 23 -9 12 -8 57
-36 100 -62z m127 -82 c0 -2 -9 0 -20 6 -11 6 -20 13 -20 16 0 2 9 0 20 -6 11
-6 20 -13 20 -16z m2350 11 c0 -2 -10 -9 -22 -15 -22 -11 -22 -10 -4 4 21 17
26 19 26 11z m-2270 -61 c0 -2 -9 0 -20 6 -11 6 -20 13 -20 16 0 2 9 0 20 -6
11 -6 20 -13 20 -16z m2190 11 c0 -2 -10 -9 -22 -15 -22 -11 -22 -10 -4 4 21
17 26 19 26 11z m-65 -41 c-26 -20 -55 -36 -55 -30 0 5 63 46 70 46 3 -1 -4
-8 -15 -16z m-2045 -20 c0 -2 -9 0 -20 6 -11 6 -20 13 -20 16 0 2 9 0 20 -6
11 -6 20 -13 20 -16z m1965 -30 c-26 -20 -55 -36 -55 -30 0 5 63 46 70 46 3
-1 -4 -8 -15 -16z m-1885 -20 c0 -2 -9 0 -20 6 -11 6 -20 13 -20 16 0 2 9 0
20 -6 11 -6 20 -13 20 -16z m1805 -30 c-26 -20 -55 -36 -55 -30 0 5 63 46 70
46 3 -1 -4 -8 -15 -16z m-1725 -20 c0 -2 -9 0 -20 6 -11 6 -20 13 -20 16 0 2
9 0 20 -6 11 -6 20 -13 20 -16z m1645 -30 c-26 -20 -55 -36 -55 -30 0 5 63 46
70 46 3 -1 -4 -8 -15 -16z m-1565 -20 c0 -2 -9 0 -20 6 -11 6 -20 13 -20 16 0
2 9 0 20 -6 11 -6 20 -13 20 -16z m1500 -18 c0 -3 -122 -80 -160 -101 -39 -21
7 12 77 56 81 51 83 52 83 45z m-1340 -82 c0 -2 -9 0 -20 6 -11 6 -20 13 -20
16 0 2 9 0 20 -6 11 -6 20 -13 20 -16z m80 -50 c0 -2 -9 0 -20 6 -11 6 -20 13
-20 16 0 2 9 0 20 -6 11 -6 20 -13 20 -16z m970 -49 c0 -2 -10 -9 -22 -15 -22
-11 -22 -10 -4 4 21 17 26 19 26 11z m-80 -50 c0 -2 -10 -9 -22 -15 -22 -11
-22 -10 -4 4 21 17 26 19 26 11z m-80 -50 c0 -2 -10 -9 -22 -15 -22 -11 -22
-10 -4 4 21 17 26 19 26 11z m-520 -31 c0 -2 -9 0 -20 6 -11 6 -20 13 -20 16
0 2 9 0 20 -6 11 -6 20 -13 20 -16z m440 -19 c0 -2 -10 -9 -22 -15 -22 -11
-22 -10 -4 4 21 17 26 19 26 11z m-360 -31 c0 -2 -9 0 -20 6 -11 6 -20 13 -20
16 0 2 9 0 20 -6 11 -6 20 -13 20 -16z m56 -35 c3 -6 -5 -3 -20 6 -14 10 -26
19 -26 22 0 7 39 -17 46 -28z m224 16 c0 -2 -10 -9 -22 -15 -22 -11 -22 -10
-4 4 21 17 26 19 26 11z m-144 -66 c3 -6 -5 -3 -20 6 -14 10 -26 19 -26 22 0
7 39 -17 46 -28z m64 16 c0 -2 -10 -9 -22 -15 -22 -11 -22 -10 -4 4 21 17 26
19 26 11z"/>
<path d="M14085 22206 c11 -7 178 -111 370 -231 579 -360 877 -546 937 -584
31 -20 93 -58 138 -86 45 -27 107 -66 138 -86 31 -20 224 -140 427 -266 730
-454 1071 -666 1105 -688 19 -13 175 -110 345 -215 171 -106 343 -214 383
-239 40 -25 92 -58 115 -72 23 -15 164 -102 312 -194 149 -92 286 -177 305
-190 19 -13 103 -65 185 -116 83 -51 395 -245 695 -432 635 -396 973 -607
1340 -835 146 -91 285 -178 310 -193 25 -16 106 -66 180 -112 l135 -84 3
-6549 2 -6549 -57 -34 c-32 -19 -80 -49 -108 -66 -64 -41 -357 -223 -1545
-963 -724 -451 -878 -547 -910 -567 -19 -13 -174 -109 -345 -215 -170 -106
-336 -209 -367 -229 -31 -20 -93 -58 -138 -86 -45 -27 -107 -66 -138 -86 -31
-20 -230 -144 -442 -276 -1139 -708 -1379 -858 -1425 -888 -27 -17 -183 -114
-345 -215 -162 -100 -311 -193 -330 -205 -19 -13 -192 -121 -385 -240 -192
-120 -376 -234 -407 -254 -31 -20 -94 -58 -138 -86 -45 -27 -89 -55 -98 -62
-13 -10 826 -12 3936 -13 l3952 0 0 11110 0 11110 -4077 0 c-3442 0 -4074 -2
-4058 -14z"/>
</g>
</svg>
