<?xml version="1.0" standalone="no"?>
<!DOCTYPE svg PUBLIC "-//W3C//DTD SVG 20010904//EN"
 "http://www.w3.org/TR/2001/REC-SVG-20010904/DTD/svg10.dtd">
<svg version="1.0" xmlns="http://www.w3.org/2000/svg"
 width="240.000000pt" height="240.000000pt" viewBox="0 0 240.000000 240.000000"
 preserveAspectRatio="xMidYMid meet">

<g transform="translate(0.000000,240.000000) scale(0.100000,-0.100000)"
fill="#000000" stroke="none">
<path d="M0 1200 l0 -1200 1200 0 1200 0 0 1200 0 1200 -1200 0 -1200 0 0
-1200z m1265 1110 c85 -77 324 -318 495 -500 80 -84 184 -194 231 -244 48 -50
126 -138 174 -196 49 -58 96 -114 106 -125 18 -20 17 -22 -29 -87 -26 -36 -92
-119 -147 -184 -55 -64 -118 -139 -140 -165 -184 -220 -389 -453 -423 -479
-15 -12 -63 -56 -107 -98 -72 -70 -148 -136 -227 -200 l-28 -24 -43 33 c-90
70 -297 271 -436 425 -190 209 -215 238 -275 309 -28 33 -55 65 -61 71 -73 80
-272 333 -279 355 -8 26 -3 35 50 96 32 38 93 104 134 148 42 44 90 96 106
116 156 192 670 726 778 807 32 25 28 27 121 -58z"/>
<path d="M1030 2013 c-183 -197 -239 -260 -283 -315 l-38 -48 50 -94 c28 -52
75 -135 106 -185 30 -49 55 -93 55 -97 0 -4 6 -15 14 -23 7 -9 31 -50 52 -91
21 -41 48 -91 60 -110 11 -19 38 -66 59 -105 79 -144 74 -137 91 -102 38 74
97 182 135 247 24 42 60 107 78 145 19 39 60 113 91 165 100 168 141 250 132
266 -5 8 -53 62 -108 121 -54 58 -106 116 -114 128 -17 25 -234 245 -241 244
-2 0 -65 -66 -139 -146z m260 -266 c8 -3 51 -15 95 -27 187 -51 225 -64 225
-72 0 -4 -6 -8 -13 -8 -8 0 -63 -16 -123 -35 -60 -19 -119 -35 -132 -35 -13 0
-31 -4 -41 -9 -21 -12 -202 -18 -219 -7 -8 5 -12 38 -11 101 l1 94 26 3 c37 4
174 0 192 -5z"/>
<path d="M669 1470 c0 -72 0 -541 1 -678 0 -39 6 -48 83 -130 46 -48 125 -132
176 -187 51 -55 123 -127 159 -159 37 -33 73 -66 81 -73 12 -12 20 -9 54 24
76 71 152 148 217 219 183 200 226 248 234 263 10 16 12 788 3 798 -4 4 -40
-55 -124 -207 -14 -25 -40 -70 -58 -100 -18 -30 -71 -125 -118 -210 -140 -256
-153 -278 -183 -319 -12 -15 -62 45 -110 131 -51 92 -111 196 -277 478 -27 47
-63 110 -79 140 -57 105 -58 105 -59 10z"/>
<path d="M468 1391 c-175 -205 -163 -187 -143 -217 9 -14 53 -69 97 -122 44
-54 100 -121 124 -151 l44 -53 1 103 c1 200 -1 573 -4 575 -1 1 -55 -60 -119
-135z"/>
<path d="M1760 1198 c0 -186 3 -338 8 -338 4 0 32 32 62 71 30 40 90 115 133
167 42 53 77 102 77 109 0 6 -6 18 -13 25 -6 7 -32 38 -57 68 -43 53 -76 90
-168 190 l-41 45 -1 -337z"/>
</g>
</svg>
