<?xml version="1.0" standalone="no"?>
<!DOCTYPE svg PUBLIC "-//W3C//DTD SVG 20010904//EN"
 "http://www.w3.org/TR/2001/REC-SVG-20010904/DTD/svg10.dtd">
<svg version="1.0" xmlns="http://www.w3.org/2000/svg"
 width="1080.000000pt" height="240.000000pt" viewBox="0 0 1080.000000 240.000000"
 preserveAspectRatio="xMidYMid meet">

<g transform="translate(0.000000,240.000000) scale(0.100000,-0.100000)"
fill="#000000" stroke="none">
<path d="M0 1200 l0 -1200 5400 0 5400 0 0 1200 0 1200 -5400 0 -5400 0 0
-1200z m1265 1110 c85 -77 324 -318 495 -500 80 -84 184 -194 231 -244 48 -50
126 -138 174 -196 49 -58 96 -114 106 -125 18 -20 17 -22 -29 -87 -26 -36 -92
-119 -147 -184 -55 -64 -118 -139 -140 -165 -184 -220 -389 -453 -423 -479
-15 -12 -63 -56 -107 -98 -72 -70 -148 -136 -227 -200 l-28 -24 -43 33 c-90
70 -297 271 -436 425 -190 209 -215 238 -275 309 -28 33 -55 65 -61 71 -73 80
-272 333 -279 355 -8 26 -3 35 50 96 32 38 93 104 134 148 42 44 90 96 106
116 156 192 670 726 778 807 32 25 28 27 121 -58z m6146 -711 c19 -19 21 -30
16 -85 -7 -87 -43 -146 -182 -293 -60 -64 -149 -159 -198 -210 -48 -52 -90
-91 -94 -87 -11 10 -25 244 -21 346 3 80 8 102 30 143 31 54 22 60 -47 28 -79
-36 -119 -98 -96 -147 21 -47 15 -64 -23 -64 -22 0 -36 6 -40 16 -11 29 -6
105 8 133 19 36 80 90 122 107 34 14 213 38 222 30 3 -3 -14 -43 -37 -88 -47
-95 -66 -194 -55 -296 l6 -62 100 105 c133 140 175 191 205 249 25 49 27 79 8
142 -7 23 16 54 41 54 8 0 24 -10 35 -21z m-3213 -1 c7 -7 12 -20 12 -30 0
-28 -35 -40 -94 -33 -41 5 -55 3 -65 -9 -11 -13 -60 -183 -61 -209 0 -4 18 2
40 13 21 11 57 20 79 20 58 0 76 -31 75 -126 -1 -58 -7 -86 -31 -136 -50 -107
-117 -158 -208 -158 -68 0 -95 30 -95 107 0 78 72 387 104 451 26 50 69 92
116 111 35 14 114 13 128 -1z m2462 -2 c6 -8 10 -25 8 -38 -3 -22 -7 -23 -78
-23 -41 0 -81 -4 -88 -8 -19 -13 -39 -58 -61 -136 l-20 -71 60 0 c56 0 59 -1
59 -25 0 -24 -2 -25 -65 -25 l-64 0 -10 -37 c-6 -21 -26 -103 -46 -182 -50
-202 -88 -269 -179 -322 -39 -22 -64 -29 -106 -29 -68 0 -83 9 -78 46 l3 29
89 5 c80 5 91 7 108 30 13 18 125 420 128 458 0 1 -25 2 -55 2 -37 0 -55 4
-55 13 0 26 17 36 69 39 l53 3 17 55 c36 112 77 167 156 208 48 25 136 29 155
8z m1882 -11 c18 -41 -3 -55 -84 -55 -68 0 -69 0 -82 -32 -19 -46 -119 -478
-112 -485 3 -3 19 6 36 21 36 30 48 32 57 11 13 -34 -99 -115 -159 -115 -34 0
-38 3 -38 25 l0 26 -43 -26 c-50 -29 -117 -34 -137 -10 -23 27 -23 105 -1 167
44 125 122 209 218 233 45 11 46 13 65 73 36 118 121 192 220 192 42 0 50 -3
60 -25z m-4728 -41 c10 -4 16 -18 16 -38 0 -45 -12 -58 -51 -54 -30 3 -34 7
-37 34 -5 48 29 75 72 58z m-356 -44 c27 -16 33 -26 30 -48 -4 -38 -48 -42
-89 -8 -32 28 -49 25 -80 -11 -30 -34 -50 -83 -94 -238 -24 -84 -49 -163 -55
-174 -10 -20 -8 -21 57 -21 37 0 95 -7 128 -14 80 -19 97 -10 88 49 -5 41 -4
44 21 51 16 4 32 1 41 -6 22 -18 19 -82 -6 -113 -32 -42 -80 -49 -236 -36 -76
6 -168 9 -205 7 -66 -5 -68 -5 -68 18 0 14 6 24 15 24 28 0 63 23 75 48 6 15
27 85 46 157 19 71 45 153 59 180 60 124 187 187 273 135z m1107 -169 c0 -30
-4 -35 -40 -49 -99 -38 -140 -95 -175 -240 l-24 -102 -43 0 c-37 0 -44 3 -41
18 2 9 18 79 37 155 19 75 31 140 28 144 -4 3 -18 -4 -32 -17 -25 -24 -55 -22
-55 4 0 31 121 106 170 106 16 0 20 -6 20 -35 l0 -34 45 45 c38 38 51 45 78
42 29 -3 32 -6 32 -37z m702 18 c4 -14 11 -18 22 -13 37 15 52 16 67 3 34 -28
81 -148 99 -253 8 -48 17 -38 45 53 18 57 19 70 8 123 -11 51 -10 60 4 74 23
23 66 11 74 -21 3 -14 1 -55 -6 -92 -33 -193 -186 -445 -303 -502 -28 -14 -63
-21 -99 -21 -64 0 -84 15 -74 56 7 25 9 25 79 23 41 -2 81 2 94 9 36 20 90 91
101 133 17 68 -14 236 -58 307 -19 31 -52 43 -65 22 -10 -16 -43 -12 -53 7 -9
15 -12 14 -40 -5 -52 -38 -86 -101 -112 -210 l-24 -102 -43 0 c-37 0 -44 3
-41 18 2 9 18 79 37 155 19 75 31 140 28 144 -4 3 -18 -4 -32 -17 -25 -24 -55
-22 -55 4 0 31 121 106 170 106 16 0 20 -6 20 -35 l0 -34 45 44 c34 34 52 45
76 45 23 0 32 -5 36 -21z m2758 -18 c0 -30 -4 -34 -49 -52 -92 -34 -140 -106
-173 -256 l-18 -83 -42 0 c-29 0 -43 4 -43 13 0 8 16 76 35 153 43 170 43 176
6 140 -30 -29 -61 -30 -61 -2 0 31 117 105 168 106 18 0 22 -5 22 -31 l0 -32
45 42 c37 34 52 42 78 39 29 -3 32 -6 32 -37z m-3145 15 c0 -8 -9 -44 -21 -80
-26 -86 -61 -247 -55 -253 3 -3 17 4 32 16 33 26 64 28 64 4 0 -20 -46 -60
-98 -87 -46 -24 -96 -18 -100 12 l-3 22 -43 -25 c-49 -29 -101 -32 -128 -8
-26 23 -24 116 4 190 15 42 38 75 83 119 64 65 105 84 178 84 20 0 37 5 37 10
0 6 11 10 25 10 15 0 25 -6 25 -14z m4688 -12 c2 -15 -37 -58 -144 -159 l-146
-139 58 -13 c33 -7 78 -16 101 -19 l41 -6 -1 48 c-2 46 -1 49 25 52 22 3 30
-2 39 -22 15 -32 5 -69 -30 -108 -23 -26 -36 -32 -86 -36 -37 -3 -83 2 -131
14 -72 17 -76 17 -105 0 -16 -10 -37 -15 -45 -12 -35 14 -9 48 141 186 85 78
155 144 155 146 0 2 -32 4 -71 4 -70 0 -71 0 -49 -18 28 -23 18 -52 -19 -52
-37 0 -51 17 -51 62 0 72 49 97 163 81 55 -8 79 -7 102 2 37 16 49 14 53 -11z
m-5791 0 c3 -9 -13 -85 -36 -168 -22 -84 -41 -156 -41 -161 0 -5 15 6 34 24
22 21 41 31 50 28 27 -10 18 -32 -28 -75 -46 -43 -77 -56 -117 -50 -37 5 -36
69 4 216 19 67 31 122 27 122 -4 0 -17 -11 -30 -25 -27 -29 -48 -32 -57 -9 -7
19 38 69 87 94 44 24 98 26 107 4z m2327 2 c49 -20 70 -72 64 -157 -6 -79 -35
-136 -98 -193 -50 -45 -77 -56 -141 -56 -42 0 -55 5 -80 29 -27 27 -29 35 -29
103 1 82 15 130 56 190 32 45 57 64 112 84 48 17 75 17 116 0z m1519 5 c50
-19 47 -100 -5 -151 -17 -17 -62 -47 -100 -66 -68 -34 -69 -35 -66 -72 4 -50
28 -52 98 -8 48 31 57 33 70 20 20 -20 7 -38 -63 -88 -47 -33 -67 -40 -115
-44 -53 -4 -61 -2 -76 19 -10 16 -16 44 -16 85 0 189 147 353 273 305z m1062
-16 c29 -28 30 -43 11 -89 -17 -41 -76 -90 -143 -118 -56 -23 -73 -51 -53 -88
15 -29 41 -25 100 15 41 28 56 33 66 24 22 -18 17 -34 -24 -66 -90 -73 -189
-95 -228 -52 -43 48 -11 219 59 312 61 80 165 110 212 62z m229 -22 l-1 -42
30 25 c65 55 139 78 165 52 19 -19 14 -62 -23 -191 -19 -67 -35 -128 -35 -135
0 -9 15 -2 40 18 22 17 44 29 50 25 22 -14 8 -44 -37 -79 -50 -39 -77 -50
-114 -44 -38 5 -37 76 1 210 17 60 30 114 28 119 -5 16 -84 -42 -110 -82 -14
-21 -34 -82 -47 -138 l-23 -101 -45 0 c-42 0 -45 2 -41 23 3 12 20 82 37 156
18 73 30 136 27 139 -4 3 -17 -5 -31 -18 -25 -24 -55 -22 -55 4 0 17 74 80
111 95 13 6 35 9 49 8 23 -2 25 -6 24 -44z m851 13 c29 -38 69 -148 79 -221
l8 -50 14 27 c30 58 42 130 31 191 -12 69 2 94 47 83 36 -9 43 -46 24 -137
-32 -153 -117 -318 -219 -421 -54 -55 -75 -69 -122 -83 -88 -25 -146 -4 -133
49 7 30 42 39 97 27 49 -11 78 0 120 46 42 44 59 87 59 147 0 108 -48 268 -85
282 -7 3 -26 -1 -43 -10 -30 -15 -52 -7 -52 20 0 15 108 84 132 84 9 0 29 -15
43 -34z m498 25 c50 -19 47 -100 -5 -151 -17 -17 -62 -47 -100 -66 -68 -34
-69 -35 -66 -72 4 -50 28 -52 98 -8 48 31 57 33 70 20 20 -20 7 -38 -63 -88
-47 -33 -67 -40 -115 -44 -53 -4 -61 -2 -76 19 -10 16 -16 44 -16 85 0 189
147 353 273 305z"/>
<path d="M1030 2013 c-183 -197 -239 -260 -283 -315 l-38 -48 50 -94 c28 -52
75 -135 106 -185 30 -49 55 -93 55 -97 0 -4 6 -15 14 -23 7 -9 31 -50 52 -91
21 -41 48 -91 60 -110 11 -19 38 -66 59 -105 79 -144 74 -137 91 -102 38 74
97 182 135 247 24 42 60 107 78 145 19 39 60 113 91 165 100 168 141 250 132
266 -5 8 -53 62 -108 121 -54 58 -106 116 -114 128 -17 25 -234 245 -241 244
-2 0 -65 -66 -139 -146z m260 -266 c8 -3 51 -15 95 -27 187 -51 225 -64 225
-72 0 -4 -6 -8 -13 -8 -8 0 -63 -16 -123 -35 -60 -19 -119 -35 -132 -35 -13 0
-31 -4 -41 -9 -21 -12 -202 -18 -219 -7 -8 5 -12 38 -11 101 l1 94 26 3 c37 4
174 0 192 -5z"/>
<path d="M669 1470 c0 -72 0 -541 1 -678 0 -39 6 -48 83 -130 46 -48 125 -132
176 -187 51 -55 123 -127 159 -159 37 -33 73 -66 81 -73 12 -12 20 -9 54 24
76 71 152 148 217 219 183 200 226 248 234 263 10 16 12 788 3 798 -4 4 -40
-55 -124 -207 -14 -25 -40 -70 -58 -100 -18 -30 -71 -125 -118 -210 -140 -256
-153 -278 -183 -319 -12 -15 -62 45 -110 131 -51 92 -111 196 -277 478 -27 47
-63 110 -79 140 -57 105 -58 105 -59 10z"/>
<path d="M468 1391 c-175 -205 -163 -187 -143 -217 9 -14 53 -69 97 -122 44
-54 100 -121 124 -151 l44 -53 1 103 c1 200 -1 573 -4 575 -1 1 -55 -60 -119
-135z"/>
<path d="M1760 1198 c0 -186 3 -338 8 -338 4 0 32 32 62 71 30 40 90 115 133
167 42 53 77 102 77 109 0 6 -6 18 -13 25 -6 7 -32 38 -57 68 -43 53 -76 90
-168 190 l-41 45 -1 -337z"/>
<path d="M7360 1566 c0 -14 5 -28 11 -32 22 -13 1 -84 -50 -167 l-52 -82 41
45 c66 71 110 179 96 235 -9 34 -46 35 -46 1z"/>
<path d="M6990 1490 c0 -5 7 -10 16 -10 9 0 14 -3 12 -7 -64 -125 -63 -121
-64 -268 -1 -227 7 -270 40 -207 11 21 12 38 6 68 -5 21 -8 91 -6 155 3 101 8
125 31 178 15 33 34 66 41 72 25 20 15 29 -31 29 -25 0 -45 -4 -45 -10z"/>
<path d="M6839 1436 c-20 -14 -44 -37 -54 -53 -23 -35 -26 -120 -5 -133 25
-16 34 6 21 48 -12 35 -11 43 8 79 11 23 33 50 48 62 39 28 25 26 -18 -3z"/>
<path d="M7187 1201 c-79 -80 -106 -119 -41 -59 38 35 128 138 122 138 -3 0
-39 -35 -81 -79z"/>
<path d="M4080 1581 c-22 -15 -8 -22 46 -24 38 -2 49 1 49 13 0 18 -71 26 -95
11z"/>
<path d="M3981 1478 c-39 -83 -55 -138 -86 -289 -27 -139 -27 -205 1 -226 10
-7 21 -13 26 -13 13 0 9 18 -4 23 -9 2 -13 26 -12 73 1 72 29 159 66 200 22
25 23 34 3 34 -12 0 -13 10 -9 48 8 66 23 121 45 166 22 46 22 46 10 46 -6 0
-23 -28 -40 -62z"/>
<path d="M4070 1321 l-25 -7 27 -7 c40 -10 52 -40 45 -112 -7 -75 -28 -124
-80 -188 -22 -27 -37 -50 -34 -53 2 -2 27 17 54 43 57 54 90 127 100 224 4 45
2 64 -11 84 -17 25 -31 29 -76 16z"/>
<path d="M4017 1260 c-32 -25 -74 -113 -87 -182 -11 -58 5 -98 39 -98 66 0
149 210 111 281 -14 24 -31 24 -63 -1z"/>
<path d="M6541 1576 c-22 -12 -20 -13 34 -20 63 -7 82 -2 64 20 -14 17 -66 18
-98 0z"/>
<path d="M6438 1498 c-29 -39 -51 -86 -69 -145 -8 -27 -19 -45 -32 -49 -19 -6
-19 -7 -4 -19 14 -10 16 -18 7 -40 -6 -15 -16 -55 -24 -89 -7 -33 -30 -126
-50 -204 -21 -79 -35 -146 -32 -149 5 -6 56 94 56 111 0 6 6 22 13 36 7 14 21
63 31 110 31 140 56 219 74 229 15 9 15 10 1 11 -14 0 -15 7 -8 43 13 67 26
105 50 143 28 46 18 55 -13 12z"/>
<path d="M6020 760 c-12 -7 -12 -13 -4 -27 12 -20 40 -20 109 0 l40 11 -45 7
c-25 4 -54 10 -65 13 -11 3 -27 2 -35 -4z"/>
<path d="M8428 1583 c-32 -8 -19 -21 28 -28 47 -7 72 3 60 24 -7 11 -54 13
-88 4z"/>
<path d="M8334 1513 c-29 -42 -42 -72 -58 -133 -11 -44 -17 -55 -34 -55 -30 0
-36 -12 -9 -19 l24 -6 -24 -102 c-13 -57 -31 -114 -40 -127 -10 -16 -12 -26
-6 -28 7 -3 9 -20 6 -43 -5 -39 -5 -40 24 -40 16 0 38 7 49 15 19 14 18 14 -3
15 -27 0 -28 9 -8 110 46 233 79 367 102 413 7 15 10 27 5 27 -4 0 -17 -12
-28 -27z"/>
<path d="M8148 1269 c-47 -27 -110 -198 -88 -239 15 -28 33 -25 74 10 37 33
58 78 80 178 l14 62 -31 0 c-18 0 -40 -5 -49 -11z"/>
<path d="M8078 1243 c-9 -10 -31 -47 -49 -83 -28 -53 -34 -76 -34 -128 0 -45
4 -65 15 -72 25 -16 66 -11 91 10 l24 19 -36 1 c-27 0 -39 6 -48 23 -18 35 -7
108 28 183 16 35 29 64 27 64 -2 0 -10 -8 -18 -17z"/>
<path d="M3770 1515 c-16 -19 -5 -47 17 -43 22 4 29 43 9 51 -8 3 -20 -1 -26
-8z"/>
<path d="M3416 1469 c19 -21 48 -26 42 -7 -3 7 -17 15 -32 19 -27 8 -28 7 -10
-12z"/>
<path d="M3257 1431 c-19 -22 -40 -49 -46 -60 -16 -29 -47 -132 -66 -216 -8
-39 -18 -80 -20 -91 -8 -33 -31 -74 -51 -89 -18 -14 -17 -14 9 -15 24 0 31 8
56 63 27 58 43 104 69 202 28 104 45 154 68 198 14 26 23 47 21 47 -3 0 -21
-18 -40 -39z"/>
<path d="M3455 1060 c-4 -7 -2 -17 4 -23 6 -6 11 -22 11 -36 0 -38 21 -11 23
30 2 24 -3 34 -15 37 -9 2 -19 -2 -23 -8z"/>
<path d="M3190 971 c-21 -6 -18 -8 24 -14 27 -4 76 -7 110 -6 l61 0 -50 14
c-54 15 -105 17 -145 6z"/>
<path d="M4498 1343 c-6 -16 -107 -103 -118 -103 -10 0 -8 15 7 57 8 20 -25
27 -55 13 l-27 -12 24 -9 c15 -6 21 -14 17 -25 -7 -18 -76 -286 -76 -296 0 -3
7 -5 17 -4 11 2 23 29 40 97 13 51 35 111 48 131 29 43 96 96 134 105 35 8 51
22 44 39 -5 14 -49 20 -55 7z"/>
<path d="M5143 1290 c-64 -58 -87 -65 -64 -21 6 11 11 30 11 42 0 19 -4 21
-32 15 -18 -4 -39 -13 -48 -21 -13 -13 -12 -15 8 -15 29 0 29 -10 -13 -176
-19 -76 -35 -142 -35 -146 0 -5 8 -8 19 -8 15 0 21 15 36 83 22 103 49 161 97
209 40 40 98 54 98 23 0 -18 12 -19 28 -3 25 25 8 78 -25 78 -6 0 -43 -27 -80
-60z"/>
<path d="M5294 1307 c-3 -8 8 -28 24 -44 50 -54 92 -184 92 -285 0 -57 -4 -70
-31 -107 -17 -24 -28 -46 -24 -49 3 -4 9 -2 13 4 4 6 24 31 44 56 42 50 122
212 136 275 13 55 10 155 -4 160 -18 6 -24 -23 -11 -56 14 -37 -7 -131 -50
-221 -30 -64 -28 -66 -63 83 -27 112 -70 197 -101 197 -11 0 -22 -6 -25 -13z"/>
<path d="M5153 760 c-15 -6 -21 -15 -17 -25 7 -18 70 -20 111 -3 l28 12 -35 4
c-19 2 -39 8 -44 13 -12 11 -14 11 -43 -1z"/>
<path d="M7927 1310 c-21 -22 -37 -42 -37 -44 0 -2 19 5 43 17 23 11 49 24 57
27 22 10 18 35 -6 38 -14 2 -33 -10 -57 -38z"/>
<path d="M7797 1318 c-26 -9 -33 -36 -8 -30 14 3 12 -10 -23 -153 -27 -105
-33 -175 -16 -175 14 0 25 30 46 123 10 47 28 94 44 115 40 57 46 69 22 48
-28 -25 -35 -17 -21 23 11 31 7 62 -8 60 -4 0 -21 -5 -36 -11z"/>
<path d="M4841 1323 c-1 -9 -14 -11 -46 -6 -41 5 -105 -10 -105 -26 0 -3 22
-4 50 -3 37 3 51 0 56 -11 7 -20 -52 -211 -71 -227 -20 -16 -19 -31 1 -23 13
5 15 -1 12 -28 -3 -31 0 -34 26 -37 36 -4 61 16 29 24 -19 5 -21 11 -16 38 12
71 54 240 64 258 6 10 8 27 6 36 -3 9 -5 11 -6 5z"/>
<path d="M4688 1255 c-55 -30 -114 -203 -81 -236 19 -19 60 -2 89 36 21 28 73
173 74 208 0 12 -53 7 -82 -8z"/>
<path d="M4579 1183 c-9 -16 -24 -53 -34 -84 -33 -101 1 -167 73 -137 26 11
26 12 5 15 -62 11 -69 95 -18 216 12 28 -9 20 -26 -10z"/>
<path d="M9291 1306 c-22 -24 -18 -38 5 -17 5 4 43 5 84 1 41 -4 78 -6 83 -3
14 8 7 -9 -19 -43 -15 -19 -24 -34 -22 -34 2 0 31 25 63 55 57 53 69 78 25 55
-12 -7 -32 -9 -44 -6 -11 3 -50 9 -86 12 -61 6 -67 4 -89 -20z"/>
<path d="M9270 1247 c0 -18 24 -39 33 -30 12 11 8 22 -13 33 -16 8 -20 8 -20
-3z"/>
<path d="M9490 1068 c0 -24 12 -58 20 -58 13 0 20 43 8 57 -13 16 -28 17 -28
1z"/>
<path d="M9221 1030 c-29 -23 -49 -46 -45 -51 4 -7 10 -7 17 0 16 16 36 14
107 -9 62 -20 124 -25 154 -14 25 10 19 25 -8 18 -13 -3 -37 1 -52 9 -16 8
-47 18 -68 21 -21 4 -50 9 -63 12 l-24 6 22 24 c34 36 17 29 -40 -16z"/>
<path d="M3685 1313 l-30 -17 26 -6 27 -5 -19 -60 c-28 -91 -54 -254 -43 -265
7 -7 21 -6 42 1 36 12 43 29 12 29 -17 0 -20 7 -20 43 0 23 5 58 11 77 27 91
49 177 49 198 0 26 -14 27 -55 5z"/>
<path d="M6050 1320 c0 -5 9 -19 19 -29 23 -23 37 -112 26 -167 -3 -20 -19
-57 -35 -82 -33 -54 -31 -66 6 -31 69 65 97 195 58 271 -19 37 -74 65 -74 38z"/>
<path d="M5917 1261 c-92 -110 -102 -287 -17 -306 42 -9 49 0 17 25 -50 39
-42 194 15 270 29 40 17 49 -15 11z"/>
<path d="M5966 1259 c-52 -62 -70 -191 -34 -249 48 -77 138 32 138 167 0 106
-51 146 -104 82z"/>
<path d="M7535 1319 c-4 -5 2 -9 12 -9 11 0 24 -5 31 -12 24 -24 13 -58 -34
-104 -26 -25 -44 -48 -41 -51 9 -8 89 45 109 72 25 33 31 67 15 88 -14 20 -83
32 -92 16z"/>
<path d="M7511 1269 c-20 -22 -55 -109 -44 -109 16 0 73 47 88 73 13 22 14 31
5 42 -17 20 -26 19 -49 -6z"/>
<path d="M7409 1184 c-35 -74 -49 -167 -30 -202 24 -45 161 -17 211 43 17 21
9 19 -41 -10 -54 -30 -104 -33 -119 -6 -15 29 -12 87 9 169 11 39 15 72 11 72
-5 0 -23 -30 -41 -66z"/>
<path d="M8590 1320 c0 -5 6 -10 14 -10 14 0 26 -29 26 -62 0 -10 -14 -33 -31
-53 -43 -48 -14 -46 39 3 34 31 42 46 42 73 0 19 -5 40 -12 47 -14 14 -78 16
-78 2z"/>
<path d="M8476 1230 c-54 -92 -71 -223 -35 -266 26 -32 105 -12 176 45 49 38
40 45 -14 11 -62 -40 -109 -41 -124 -2 -16 41 -4 140 25 205 29 65 30 67 16
67 -5 0 -25 -27 -44 -60z"/>
<path d="M8563 1278 c-28 -35 -60 -118 -45 -118 4 0 27 16 51 36 33 28 41 42
39 63 -3 28 -29 39 -45 19z"/>
<path d="M8835 1311 c-3 -6 2 -14 11 -19 15 -8 16 -14 6 -38 -15 -37 -50 -189
-58 -248 -5 -36 -4 -46 8 -46 10 0 21 30 38 103 17 74 31 112 53 141 27 34 28
38 8 31 -20 -6 -20 -4 -15 39 6 44 6 46 -19 46 -14 0 -28 -4 -32 -9z"/>
<path d="M9015 1310 c-3 -6 1 -13 9 -16 29 -11 15 -112 -27 -193 -6 -13 -12
-51 -12 -85 0 -56 2 -61 23 -64 13 -2 29 2 37 8 12 10 12 14 0 27 -18 17 -18
27 -4 73 5 19 12 42 14 50 1 8 10 43 19 76 9 34 16 78 16 98 0 34 -2 36 -34
36 -19 0 -38 -5 -41 -10z"/>
<path d="M9673 1305 l-28 -24 26 -1 c37 0 55 -18 78 -78 52 -133 62 -252 28
-322 -10 -18 -17 -38 -17 -43 0 -24 42 31 79 103 42 80 50 103 29 82 -21 -21
-38 -14 -38 16 0 15 -11 65 -23 112 -43 160 -80 203 -134 155z"/>
<path d="M9929 1318 c-1 -2 -2 -43 -4 -93 -2 -84 -2 -88 10 -53 20 57 23 148
5 148 -5 0 -10 -1 -11 -2z"/>
<path d="M9670 764 c-18 -10 -41 -13 -81 -8 -58 6 -74 -1 -59 -25 16 -27 152
3 164 35 3 8 4 14 3 13 -1 -1 -13 -7 -27 -15z"/>
<path d="M10197 1327 c-3 -7 4 -19 14 -25 31 -19 23 -58 -21 -106 -51 -56 -51
-64 3 -28 60 42 80 68 80 104 0 46 -62 91 -76 55z"/>
<path d="M10091 1263 c-50 -60 -73 -121 -79 -201 -6 -87 9 -112 66 -112 32 0
134 49 147 71 10 16 -19 10 -50 -11 -16 -11 -45 -20 -63 -20 -26 0 -35 5 -42
26 -23 59 -3 163 44 235 14 21 26 41 26 44 0 15 -22 1 -49 -32z"/>
<path d="M10151 1269 c-20 -22 -55 -109 -44 -109 16 0 73 47 88 73 13 22 14
31 5 42 -17 20 -26 19 -49 -6z"/>
</g>
</svg>
